<svg width="16" height="16" viewBox="0 0 16 16" fill="none" xmlns="http://www.w3.org/2000/svg">
<path d="M8 0C3.58862 0 0 3.58862 0 8C0 9.50492 0.418154 10.9658 1.21138 12.2345C0.895385 13.3415 0.324615 15.4357 0.318462 15.4575C0.288923 15.5658 0.320615 15.6815 0.401538 15.7594C0.482462 15.8372 0.599385 15.8649 0.705846 15.8323L3.87692 14.8569C5.11908 15.6052 6.54154 16 8 16C12.4114 16 16 12.4114 16 8C16 3.58862 12.4114 0 8 0ZM8 15.3846C6.60954 15.3846 5.25508 14.996 4.08277 14.2612C4.03323 14.2302 3.97631 14.2145 3.91938 14.2145C3.88892 14.2145 3.85846 14.2191 3.82892 14.228L1.06 15.0803C1.26338 14.3378 1.62892 13.0098 1.84092 12.2711C1.86554 12.1855 1.85169 12.0932 1.80338 12.0185C1.02615 10.8225 0.615385 9.43292 0.615385 8C0.615385 3.92831 3.92831 0.615385 8 0.615385C12.0717 0.615385 15.3846 3.92831 15.3846 8C15.3846 12.0717 12.0717 15.3846 8 15.3846Z" fill="#A56EA7"/>
<path d="M13.2262 9.88486C12.6582 9.56948 12.1745 9.25317 11.8216 9.0224C11.552 8.8464 11.3573 8.71932 11.2145 8.64763C10.8154 8.44855 10.513 8.58917 10.3979 8.70547C10.3834 8.71994 10.3705 8.73563 10.3594 8.75224C9.94495 9.37409 9.40372 9.96886 9.24526 10.0009C9.06218 9.97224 8.20526 9.48517 7.35357 8.77594C6.48403 8.05132 5.93695 7.35747 5.85665 6.88486C6.41449 6.3107 6.61541 5.94947 6.61541 5.5384C6.61541 5.1147 5.62711 3.34578 5.44834 3.16701C5.26895 2.98794 4.86495 2.95994 4.24741 3.08301C4.18803 3.09501 4.13326 3.12424 4.09018 3.16701C4.01541 3.24178 2.26588 5.02547 3.09726 7.18732C4.00988 9.55994 6.35234 12.3178 9.3388 12.7658C9.67818 12.8166 9.99634 12.8418 10.2942 12.8418C12.0511 12.8418 13.088 11.9578 13.38 10.2042C13.4019 10.0759 13.34 9.94794 13.2262 9.88486ZM9.43018 12.1572C6.27203 11.6836 4.2828 8.55471 3.67172 6.9664C3.06557 5.39101 4.18341 3.9864 4.46403 3.66886C4.69234 3.63009 4.93265 3.61378 5.03295 3.62947C5.24249 3.92086 5.96803 5.29163 6.00003 5.5384C6.00003 5.69994 5.94741 5.92486 5.32095 6.55163C5.26311 6.60917 5.2308 6.68732 5.2308 6.76917C5.2308 8.38024 8.62895 10.6153 9.2308 10.6153C9.75418 10.6153 10.4366 9.73563 10.8253 9.1624C10.8477 9.16332 10.8856 9.17101 10.9394 9.19809C11.0502 9.25378 11.2422 9.37901 11.485 9.53778C11.8056 9.74732 12.2314 10.0255 12.7342 10.3138C12.5059 11.4122 11.8677 12.5233 9.43018 12.1572Z" fill="#A56EA7"/>
</svg>
